<svg id="Capa_1" enable-background="new 0 0 512 512" height="512" viewBox="0 0 512 512" width="512" xmlns="http://www.w3.org/2000/svg"><g><path d="m307.799 245.988 43.201 10.801v-44.089c-18.364 4.238-34.127 16.176-43.201 33.288z"/><path d="m436.312 74.688c-48.163-48.164-112.199-74.688-180.312-74.688s-132.149 26.524-180.312 74.688c-48.164 48.163-74.688 112.199-74.688 180.312v202c0 30.327 24.673 55 55 55h400c30.327 0 55-24.673 55-55v-202c0-68.113-26.524-132.149-74.688-180.312zm14.688 250.312c0 24.813-20.187 45-45 45h-5v27c0 30.327-24.673 55-55 55h-180c-30.327 0-55-24.673-55-55v-27h-5c-24.813 0-45-20.187-45-45v-70c0-107.523 87.477-195 195-195s195 87.477 195 195z"/><path d="m256 90c-90.981 0-165 74.019-165 165v70c0 8.271 6.729 15 15 15h20c8.284 0 15 6.716 15 15v42c0 13.785 11.215 25 25 25h15v-25c0-8.284 6.716-15 15-15s15 6.716 15 15v25h30v-25c0-8.284 6.716-15 15-15s15 6.716 15 15v25h30v-25c0-8.284 6.716-15 15-15s15 6.716 15 15v25h15c13.785 0 25-11.215 25-25v-42c0-8.284 6.716-15 15-15h20c8.271 0 15-6.729 15-15v-70c0-90.981-74.019-165-165-165zm-106.362 200.552c-9.092 2.538-18.894-5.088-18.638-14.552v-80c0-8.284 6.716-15 15-15 36.56 0 69.427 20.313 85.776 53.013 6.522 12.254 17.444 29.804-2.139 36.539zm146.968 59.054c-2.928 2.93-6.767 4.394-10.606 4.394s-7.678-1.464-10.606-4.394l-19.394-19.393-19.394 19.393c-5.857 5.858-15.355 5.858-21.213 0s-5.858-15.355 0-21.213l30-30c5.857-5.858 15.355-5.858 21.213 0l30 30c5.859 5.858 5.859 15.356 0 21.213zm84.394-153.606v80c.256 9.465-9.546 17.089-18.638 14.552l-80-20c-19.596-6.743-8.645-24.302-2.139-36.54 16.35-32.699 49.217-53.012 85.777-53.012 8.284 0 15 6.716 15 15z"/><path d="m161 212.7v44.088l43.201-10.801c-9.074-17.111-24.837-29.049-43.201-33.287z"/></g></svg>